<?xml version="1.0" encoding="UTF-8"?>
<svg id="Layer_1" xmlns="http://www.w3.org/2000/svg" version="1.1" viewBox="0 0 500 300">
  <!-- Generator: Adobe Illustrator 29.1.0, SVG Export Plug-In . SVG Version: 2.1.0 Build 142)  -->
  <defs>
    <style>
      .st0 {
        fill: #fff;
      }

      .st1 {
        fill: #b92525;
      }

      .st2 {
        fill: #252165;
      }
    </style>
  </defs>
  <g id="stripes">
    <rect class="st1" y="276.9" width="500" height="23.1"/>
    <rect class="st0" y="253.8" width="500" height="23.1"/>
    <rect class="st1" y="230.8" width="500" height="23.1"/>
    <rect class="st0" y="207.7" width="500" height="23.1"/>
    <rect class="st1" y="185.3" width="500" height="23.1"/>
    <rect class="st0" y="162.2" width="500" height="23.1"/>
    <rect class="st1" y="138.5" width="500" height="23.1"/>
    <rect class="st0" y="114.7" width="500" height="23.1"/>
    <rect class="st1" y="90.9" width="500" height="23.1"/>
    <rect class="st0" y="67.2" width="500" height="23.1"/>
    <rect class="st0" y="23.8" width="500" height="23.1"/>
    <rect class="st1" width="500" height="23.1"/>
    <rect class="st1" x="0" y="47.5" width="500" height="19"/>
  </g>
  <rect id="rectangle" class="st2" width="222.2" height="161.5"/>
  <g id="stars">
    <polygon class="st0" points="51.4 17.4 55.8 9.7 59.5 17.4 66.4 17.4 60.5 23 63.2 29.2 56.3 26 49.5 29.2 51.9 22.6 45.5 17.6 51.4 17.4"/>
    <polygon class="st0" points="196.2 17.4 200.6 9.7 204.3 17.4 211.1 17.4 205.2 23 207.9 29.2 201.1 26 194.2 29.2 196.7 22.6 190.3 17.6 196.2 17.4"/>
    <polygon class="st0" points="87.6 17.4 92 9.7 95.7 17.4 102.5 17.4 96.7 23 99.4 29.2 92.5 26 85.6 29.2 88.1 22.6 81.7 17.6 87.6 17.4"/>
    <polygon class="st0" points="123.8 17.4 128.2 9.7 131.9 17.4 138.7 17.4 132.9 23 135.6 29.2 128.7 26 121.8 29.2 124.3 22.6 117.9 17.6 123.8 17.4"/>
    <polygon class="st0" points="160 17.4 164.4 9.7 168.1 17.4 174.9 17.4 169 23 171.7 29.2 164.9 26 158 29.2 160.5 22.6 154.1 17.6 160 17.4"/>
    <polygon class="st0" points="34.1 42.7 38.5 35 42.2 42.7 49 42.7 43.1 48.3 45.8 54.4 39 51.3 32.1 54.4 34.6 47.8 28.2 42.9 34.1 42.7"/>
    <polygon class="st0" points="70.6 42.7 75 35 78.7 42.7 85.5 42.7 79.6 48.3 82.3 54.4 75.5 51.3 68.6 54.4 71.1 47.8 64.7 42.9 70.6 42.7"/>
    <polygon class="st0" points="180 42.7 184.4 35 188.1 42.7 195 42.7 189.1 48.3 191.8 54.4 184.9 51.3 178.1 54.4 180.5 47.8 174.1 42.9 180 42.7"/>
    <polygon class="st0" points="107.1 42.7 111.5 35 115.1 42.7 122 42.7 116.1 48.3 118.8 54.4 112 51.3 105.1 54.4 107.5 47.8 101.2 42.9 107.1 42.7"/>
    <polygon class="st0" points="143.5 42.7 148 35 151.6 42.7 158.5 42.7 152.6 48.3 155.3 54.4 148.4 51.3 141.6 54.4 144 47.8 137.6 42.9 143.5 42.7"/>
    <polygon class="st0" points="16.1 65.7 20.5 58 24.2 65.7 31 65.7 25.1 71.3 27.8 77.5 21 74.3 14.1 77.5 16.6 70.8 10.2 65.9 16.1 65.7"/>
    <polygon class="st0" points="52.3 65.7 56.7 58 60.4 65.7 67.2 65.7 61.3 71.3 64 77.5 57.2 74.3 50.3 77.5 52.8 70.8 46.4 65.9 52.3 65.7"/>
    <polygon class="st0" points="197 65.7 201.4 58 205.1 65.7 212 65.7 206.1 71.3 208.8 77.5 201.9 74.3 195.1 77.5 197.5 70.8 191.1 65.9 197 65.7"/>
    <polygon class="st0" points="88.5 65.7 92.9 58 96.5 65.7 103.4 65.7 97.5 71.3 100.2 77.5 93.4 74.3 86.5 77.5 88.9 70.8 82.6 65.9 88.5 65.7"/>
    <polygon class="st0" points="124.6 65.7 129.1 58 132.7 65.7 139.6 65.7 133.7 71.3 136.4 77.5 129.5 74.3 122.7 77.5 125.1 70.8 118.8 65.9 124.6 65.7"/>
    <polygon class="st0" points="160.8 65.7 165.2 58 168.9 65.7 175.8 65.7 169.9 71.3 172.6 77.5 165.7 74.3 158.9 77.5 161.3 70.8 154.9 65.9 160.8 65.7"/>
    <polygon class="st0" points="34.9 91 39.3 83.3 43 91 49.9 91 44 96.6 46.7 102.7 39.8 99.6 33 102.7 35.4 96.1 29 91.1 34.9 91"/>
    <polygon class="st0" points="71.4 91 75.8 83.3 79.5 91 86.4 91 80.5 96.6 83.2 102.7 76.3 99.6 69.5 102.7 71.9 96.1 65.5 91.1 71.4 91"/>
    <polygon class="st0" points="180.9 91 185.3 83.3 189 91 195.8 91 190 96.6 192.6 102.7 185.8 99.6 178.9 102.7 181.4 96.1 175 91.1 180.9 91"/>
    <polygon class="st0" points="107.9 91 112.3 83.3 116 91 122.9 91 117 96.6 119.7 102.7 112.8 99.6 105.9 102.7 108.4 96.1 102 91.1 107.9 91"/>
    <polygon class="st0" points="144.4 91 148.8 83.3 152.5 91 159.3 91 153.5 96.6 156.2 102.7 149.3 99.6 142.4 102.7 144.9 96.1 138.5 91.1 144.4 91"/>
    <polygon class="st0" points="16.1 113.2 20.5 105.5 24.2 113.2 31 113.2 25.1 118.8 27.8 124.9 21 121.8 14.1 124.9 16.6 118.3 10.2 113.3 16.1 113.2"/>
    <polygon class="st0" points="52.3 113.2 56.7 105.5 60.4 113.2 67.2 113.2 61.3 118.8 64 124.9 57.2 121.8 50.3 124.9 52.8 118.3 46.4 113.3 52.3 113.2"/>
    <polygon class="st0" points="197 113.2 201.4 105.5 205.1 113.2 212 113.2 206.1 118.8 208.8 124.9 201.9 121.8 195.1 124.9 197.5 118.3 191.1 113.3 197 113.2"/>
    <polygon class="st0" points="88.5 113.2 92.9 105.5 96.5 113.2 103.4 113.2 97.5 118.8 100.2 124.9 93.4 121.8 86.5 124.9 88.9 118.3 82.6 113.3 88.5 113.2"/>
    <polygon class="st0" points="124.6 113.2 129.1 105.5 132.7 113.2 139.6 113.2 133.7 118.8 136.4 124.9 129.5 121.8 122.7 124.9 125.1 118.3 118.8 113.3 124.6 113.2"/>
    <polygon class="st0" points="160.8 113.2 165.2 105.5 168.9 113.2 175.8 113.2 169.9 118.8 172.6 124.9 165.7 121.8 158.9 124.9 161.3 118.3 154.9 113.3 160.8 113.2"/>
    <polygon class="st0" points="34.9 138.4 39.3 130.8 43 138.4 49.9 138.4 44 144.1 46.7 150.2 39.8 147 33 150.2 35.4 143.6 29 138.6 34.9 138.4"/>
    <polygon class="st0" points="71.4 138.4 75.8 130.8 79.5 138.4 86.4 138.4 80.5 144.1 83.2 150.2 76.3 147 69.5 150.2 71.9 143.6 65.5 138.6 71.4 138.4"/>
    <polygon class="st0" points="180.9 138.4 185.3 130.8 189 138.4 195.8 138.4 190 144.1 192.6 150.2 185.8 147 178.9 150.2 181.4 143.6 175 138.6 180.9 138.4"/>
    <polygon class="st0" points="107.9 138.4 112.3 130.8 116 138.4 122.9 138.4 117 144.1 119.7 150.2 112.8 147 105.9 150.2 108.4 143.6 102 138.6 107.9 138.4"/>
    <polygon class="st0" points="144.4 138.4 148.8 130.8 152.5 138.4 159.3 138.4 153.5 144.1 156.2 150.2 149.3 147 142.4 150.2 144.9 143.6 138.5 138.6 144.4 138.4"/>
    <polygon class="st0" points="15.2 17.4 19.6 9.7 23.3 17.4 30.2 17.4 24.3 23 27 29.2 20.1 26 13.3 29.2 15.7 22.6 9.3 17.6 15.2 17.4"/>
  </g>
</svg>