<?xml version="1.0" encoding="UTF-8"?>
<svg id="Layer_1" data-name="Layer 1" xmlns="http://www.w3.org/2000/svg" viewBox="0 0 300 500">
  <defs>
    <style>
      .cls-1 {
        fill: none;
      }

      .cls-2 {
        fill: #58595b;
      }

      .cls-3 {
        fill: #231f20;
      }

      .cls-4 {
        fill: #603913;
      }

      .cls-5 {
        fill: #be1e2d;
      }

      .cls-6 {
        fill: #fbb040;
      }

      .cls-7 {
        fill: #f1f2f2;
      }

      .cls-8 {
        fill: #3c2415;
      }

      .cls-9 {
        fill: #fff;
      }

      .cls-10 {
        fill: #f7941d;
      }
    </style>
  </defs>
  <path class="cls-5" d="M149.13,204.11l-20.87-5.66-2.51-.68s-4.12.36-6.79.36c-1.45.49-3.81,1.3-6.71,2.32-4.92,1.73-8.68,3.1-8.92,3.19-7.53,2.82-17.27,38.87-21.36,55.06-1.85,20.77,9.69,44.69,7.85,65.45,5.6,0,9.89-7.66,15.49-7.66,1.09,0-1.09,0,0,0,2.31-20.31-4.18-36.1-1.88-56.41,3.6-8.34,7.19-16.67,10.79-25.01.99.47-.57,4.5-1.48,19.1h0c-1.49,18.47-2.98,36.94-6.22,56.06-3.95,23.24-14.92,49.1-18.86,72.34,9.68,0,19.36,0,29.03,0,8.42,0,16.95,0,25.38,0l2.06-2.21,4.95-5.31h0l4.79,4.37,3.14,3.15c17.68,0,35.37,0,53.05,0"/>
  <path class="cls-8" d="M127.36,199.22l-2.45-21s5.11,17,22.39,19.11c0,0,12.53,3.15,23.41-19.11l-2.54,20.67-20.87,5.66-19.94-5.33Z"/>
  <path class="cls-4" d="M177.18,160.68c-.01,1.87-9.95,36.65-27.91,36.65-15.5,0-28.01-16.05-28.01-39.06,0-.23-1.42.65-2.53-1.26-.4-.7-.92-2.3-1.06-2.54,0,0-.85-5.17.5-12.43.03-.14.08-.24.16-.31.24-.22,1.8-.45,2.39-.23,0,0,.69.48,1.7,2.02-.17-2.6-.31-10.18,4.63-17.49,5.01-7.4,21.48,8.04,29.98,8.31,12.95.42,17.61-7.51,18.85,9.65h0c.79-.4,2.1-2.36,2.1-2.36,0,0,1.08-1.4,2.64,0l.35.98c.19.18,0,0,0,0,0,0,.74,2.02.77,5.05.03,2.51-.13,4.76-.61,7.06-.07.34-.87,2.18-1.4,3.44-.55,1.32-1.9,1.19-2.29,1.18l-.26,1.34Z"/>
  <path class="cls-5" d="M147.31,204.55l20.87-5.66,2.51-.68s4.12.36,6.79.36c1.45.49,3.81,1.3,6.71,2.32,4.92,1.73,8.68,3.1,8.92,3.19,7.53,2.82,17.27,38.87,21.36,55.06,1.85,20.77,3.69,41.54,5.54,62.3-5.6,0-11.2,0-16.79,0-1.09,0-2.19,0-3.28,0-2.31-20.31-4.62-40.61-6.92-60.92-3.6-8.34-7.19-16.67-10.79-25.01-.99.47.57,4.5,1.48,19.1h0c1.49,18.47,2.98,36.94,6.22,56.06,3.95,23.24,14.92,49.1,18.86,72.34h-29.03c-8.42,0-16.95,0-25.38,0l-2.06-2.21-4.95-5.31h0l-4.79,4.37-3.14,3.15c-17.68,0-35.37,0-53.05,0"/>
  <path class="cls-1" d="M116.35,323.22c-.37.5-.95,1.27-2.39,1.88"/>
  <path class="cls-3" d="M169.82,466.7h-44.91v-83.69c4.74,0,14.21,0,14.21,0l8.24-7.52,7.01,7.52s10.3,0,15.44,0v83.69Z"/>
  <line class="cls-1" x1="209.02" y1="480.52" x2="208.35" y2="490.36"/>
  <line class="cls-1" x1="85.65" y1="480.52" x2="85.82" y2="490.36"/>
  <polyline class="cls-8" points="124.91 466.7 85.65 480.52 85.82 490.36 208.35 490.36 209.02 480.52 169.82 466.7"/>
  <rect class="cls-8" x="132.23" y="490.36" width="29.95" height="2.25"/>
  <path class="cls-4" d="M204.25,329.88l-1.93,3.59c-1.84,3.28-4.14,7.87-4.61,11.6-.07.53-1.12,2.69-1.13,3.79,0,1.72.95,1.81,1.36,1.95.33.12,1.92-.62,3.8-4.07.14,4.83-.01,7.63.12,12.45.92,1.03,1.17,1.03,2.25.52.96-.47,1.15-.66,1.33-1.11.23.68.37,1.14.84,1.6.9,1.18,1.8.54,2.16,0,.59-.49.9-.97,1.42-1.63.36.68.81.94,1.17,1.62.68.99,1.22.81,1.82,0q.51-.75,1.15-1.62c.46.77.61.81,1.06,1.58,1.02,1.16,1.57.7,2.17-.05,2.4-5.09,0-26.65,0-26.65-.53-1.2-1.06-2.39-1.58-3.59"/>
  <rect class="cls-9" x="57.73" y="292.89" width="178.47" height="1.78" transform="translate(-146.82 440.74) rotate(-90)"/>
  <circle class="cls-6" cx="215.41" cy="305.51" r="1.82"/>
  <circle class="cls-6" cx="214.92" cy="299.31" r="1.82"/>
  <line class="cls-1" x1="147.36" y1="375.49" x2="148.69" y2="466.7"/>
  <path class="cls-1" d="M143.24,195.42h.39c-.08.03-.18-.03-.2-.11.26-.12.56-.07.84-.03,1.83.25,3.67-.13,5.46-.57-.2.03-.42,0-.6-.1.16.02.32,0,.46-.07"/>
  <path class="cls-2" d="M221.38,329.88h-22.76v-8.44h22.76v8.44Z"/>
  <line class="cls-1" x1="148.69" y1="466.7" x2="149.01" y2="492.6"/>
  <path class="cls-3" d="M175.5,145.44c-9.33,0-18.87-3.94-28.2-3.94-8.48,0-16.74,3.94-25.23,3.94-.87,0-5.49-.09-9.22-3.82-2.36-2.36-3.82-5.62-3.82-9.22v-61.48c.54-7.69,7.31-20.17,13.04-21.48,12.85-2.94,39.7-3.68,53.42,0,4.48,1.2,13.04,13.56,13.04,20.76v62.21c0,7.2-5.84,13.04-13.04,13.04Z"/>
  <rect class="cls-7" x="104.9" y="292.87" width="83.64" height="10.81"/>
  <g>
    <circle class="cls-6" cx="155.08" cy="248" r="1.82"/>
    <circle class="cls-6" cx="155.08" cy="264.67" r="1.82"/>
    <circle class="cls-6" cx="155.08" cy="281.34" r="1.82"/>
    <circle class="cls-6" cx="155.08" cy="231.33" r="1.82"/>
    <circle class="cls-6" cx="155.08" cy="214.66" r="1.82"/>
  </g>
  <polygon class="cls-3" points="104.36 315.56 75.24 132.12 81.76 129.45 117.41 287.16 113.96 292.87 132.76 333.94 105.57 333.07 104.36 315.56"/>
  <polygon class="cls-4" points="88.87 323.22 93.4 332.2 103.96 338.29 114.22 338.29 116.47 334.81 105.57 333.07 103.96 327.28 113.02 330.75 115.41 328.95 104.36 315.56 88.87 323.22"/>
  <rect class="cls-10" x="132.76" y="290.61" width="27.8" height="14.45"/>
  <path class="cls-2" d="M109.51,320.7c-4.71,2.35-9.43,4.7-14.14,7.05l-3.75,1.87-3.77-7.55,17.89-8.93,3.77,7.55Z"/>
</svg>