<?xml version="1.0" encoding="UTF-8"?>
<svg id="Layer_1" data-name="Layer 1" xmlns="http://www.w3.org/2000/svg" viewBox="0 0 300 500">
  <defs>
    <style>
      .cls-1, .cls-2 {
        fill: none;
      }

      .cls-3 {
        fill: #c49a6c;
      }

      .cls-4 {
        fill: #231f20;
      }

      .cls-5 {
        fill: #be1e2d;
      }

      .cls-6 {
        fill: #fbb040;
      }

      .cls-7 {
        fill: #ed1c24;
      }

      .cls-2 {
        stroke: #a97c50;
      }

      .cls-2, .cls-8 {
        stroke-miterlimit: 10;
      }

      .cls-9, .cls-8 {
        fill: #f1f2f2;
      }

      .cls-10 {
        fill: #a97c50;
      }

      .cls-8 {
        stroke: #808285;
      }
    </style>
  </defs>
  <polygon class="cls-5" points="159.73 249.93 182.1 184.08 191.93 183.74 214.32 192.15 194.19 224.34 159.73 249.93"/>
  <path class="cls-10" d="M146.19,185.67l-.7-27.57s-2.81,19.01,15.45,22.23c0,0,4.8,9.2,16.31-24.8l.33,29.31-16.63,6.52-14.75-5.7Z"/>
  <path class="cls-3" d="M139.52,105.29c5.29-7.82,16.06,15.96,25.05,16.25,7.27,2.09,26.3-18.94,28.79.24h0c.84-.42,0,0,0,0,0,0,1.14-1.48,2.79,0l.37,1.04c.2.19,0,0,0,0,0,0,.78,2.13.82,5.34.03,2.65-.14,5.03-.65,7.46-.07.36-.92,2.3-1.48,3.64-.58,1.4-2.01,1.26-2.42,1.24h0c-2.11-2.46-9.8,36.74-26.96,40.6-15.98,3.59-25.96-15.32-32.42-41.73"/>
  <path class="cls-10" d="M130.31,121.87c.26-.23,1.91-.48,2.53-.24"/>
  <path class="cls-3" d="M160.63,248.13l-6.74-19.1-2.52-7.15-11.5-39.25s15.62,5.64,21.08,5.63,22.06-5.98,22.06-5.98l-22.37,65.85"/>
  <path class="cls-5" d="M185.97,265.12l11.87-44.12-37.21,27.14-20.76-65.5-6.42-.27-6.96-.68s-14.36,3.33-17.3,6.95l13.91,35.61s6.95,20.7,13.79,41.75c0,0-39.39,107.09-40.32,110.9,18.69,0,37.38,0,56.07,0l3.31-3.33,5.06-4.62.12,7.95,5.12-2.34,2.18,2.34c8.9,0,17.92,0,26.82,0h30.69c-4.17-24.56-35.78-87.21-39.95-111.77Z"/>
  <path class="cls-5" d="M214.63,191.73c-.06-.05-.13-.09-.19-.14l-19.36,30.95s-1.66,19.12-2.49,28.68c-8.03,20.05-16.05,40.1-24.08,60.16,6.23,3.35,9.3,5.01,15.52,8.36,8.69-20.25,18.95-39.65,27.64-59.9,4.3-17.12,5.43-52.89,6.49-58.51.05-.26-.18-5.56-3.54-9.59Z"/>
  <path class="cls-5" d="M213.78,191.03c-.55-.46-1.19-.84-1.81-1.21-.88-.51-1.77-1.04-2.68-1.49-.96-.4-1.95-.72-2.96-.98-.17-.04-.29-.13-.39-.23-1.52-.62-2.96-1.42-4.45-2.12l-1.57-.61c-3.07-1.08-5.56-1.93-7.09-2.45-2.82,0-7.17-.38-7.17-.38l-2.65.72-22.37,65.85,53.57-56.75c-.14-.12-.28-.24-.41-.35Z"/>
  <path class="cls-1" d="M100.94,101.36c-.44-.49-1.14-1.23-2.72-1.7"/>
  <path class="cls-3" d="M184.73,465.33h-47.46v-88.45c5.01,0,15.02,0,15.02,0l8.71-7.95,7.41,7.95s10.88,0,16.32,0v88.45Z"/>
  <line class="cls-1" x1="226.16" y1="479.94" x2="225.46" y2="490.33"/>
  <line class="cls-1" x1="100.26" y1="479.93" x2="100.44" y2="490.33"/>
  <polyline class="cls-4" points="137.27 465.33 95.77 479.93 95.95 490.33 225.46 490.33 226.16 479.94 184.73 465.33"/>
  <rect class="cls-4" x="135.63" y="490.06" width="35.31" height="2.65"/>
  <path class="cls-3" d="M168.31,321.39l-3.6,2.37c-3.36,2.14-7.8,5.24-10.1,8.48-.33.46-2.39,1.94-2.95,2.97-.87,1.6-.02,2.16.28,2.5.25.27,2.1.39,5.58-1.88-2.29,4.56-3.83,7.09-6.12,11.65.34,1.42.58,1.54,1.83,1.61,1.13.05,1.4-.04,1.8-.37-.13.75-.23,1.25-.03,1.91.25,1.55,1.4,1.4,2.01,1.08.79-.16,1.32-.45,2.14-.8,0,.82.28,1.28.28,2.1.14,1.26.73,1.36,1.69.92q.85-.44,1.88-.93c.04.95.16,1.06.2,2,.37,1.59,1.11,1.44,2.04,1.04,4.78-3.54,13.35-24.8,13.35-24.8.11-1.38.22-2.76.32-4.13"/>
  <line class="cls-2" x1="161.12" y1="376.89" x2="162.4" y2="465.33"/>
  <path class="cls-8" d="M180.4,327.9l-12.09-6.51-3.21-1.73,4.23-7.85,15.29,8.24-4.23,7.85Z"/>
  <line class="cls-1" x1="162.4" y1="465.33" x2="162.75" y2="492.7"/>
  <path class="cls-6" d="M128.8,118.52s-4.07,10.14,0,19.44c0,0,2.77,10.04,9.09,11.35,0,0-.37-17.86,2.23-24.74l2.23,3.72s18.41,5.58,40.73.19l2.42-2.79s6.28,10.04,0,26.23c0,0,18.41-4.85,13.76-33.39,0,0-36.78,10.5-70.47,0Z"/>
  <path class="cls-5" d="M117.17,118.06s31.94,11.5,92.66,0c0,0,0-5.33-18-6.29-.76-1.89,2.2-12.83-2.08-19.23-2.49-3.73-2.4-2.68-4.16-3.42-8.31-3.91-16.83-1.45-21.93-1.38-.83.01-2.33.07-4.6.03-4.2-.07-5.9-.39-12.85-.05-3.18.93-7.33,1.47-9.39,3.53-6.17,6.16-4.07,21.76-4.07,21.76,0,0-16.01,1.26-15.58,5.05Z"/>
  <ellipse class="cls-6" cx="135.09" cy="154.28" rx="4.78" ry="8.18"/>
  <ellipse class="cls-6" cx="136.88" cy="166.18" rx="4.78" ry="8.18"/>
  <ellipse class="cls-6" cx="136.88" cy="176.42" rx="4.78" ry="8.18"/>
  <ellipse class="cls-6" cx="136.88" cy="188.64" rx="4.78" ry="8.18"/>
  <ellipse class="cls-6" cx="136.88" cy="196.82" rx="4.78" ry="8.18"/>
  <ellipse class="cls-6" cx="188.66" cy="155.18" rx="4.78" ry="8.18"/>
  <ellipse class="cls-6" cx="185.97" cy="166.05" rx="4.78" ry="8.18"/>
  <ellipse class="cls-6" cx="185.97" cy="176.59" rx="4.78" ry="8.18"/>
  <ellipse class="cls-6" cx="185.97" cy="196.82" rx="4.78" ry="8.18"/>
  <polygon class="cls-6" points="133.87 202.91 130.33 210.45 143.42 210.45 140.48 202.91 133.87 202.91"/>
  <polygon class="cls-6" points="182.96 201.89 179.42 209.43 192.52 209.43 189.57 201.89 182.96 201.89"/>
  <path class="cls-9" d="M178.06,196.82s-1.79,6.86-7.11,0c0,0-4.17,9.84-9.49,0,0,0-5.47,7.86-8.96,0,0,0-2.51,7.54-8.13,0l16.27,51.31h0"/>
  <path class="cls-4" d="M137.03,266.25s14.28,12.95,49.09-.87l.97-3.6s-29.55,10.12-51.28.84l1.22,3.64Z"/>
  <rect class="cls-5" x="149.49" y="366.09" width="27.17" height="10.8"/>
  <path class="cls-5" d="M108.58,188.64s-1.13,3.5.05,27.59c.74,14.99,1.49,27.46,2.06,36.32,7.7,20.65,17.01,40.52,24.7,61.17,6.38-3.05,9.53-4.55,15.91-7.6-7.7-20.31-15.4-40.61-23.11-60.92.92-11.31,2.91-35.44,2.91-35.44l-22.54-21.12Z"/>
  <path class="cls-3" d="M152.11,315.13l3.48,2.54c3.25,2.3,7.53,5.62,9.68,8.96.3.47,2.29,2.05,2.8,3.11.79,1.64-.08,2.16-.4,2.48-.26.26-2.11.29-5.48-2.15,2.07,4.66,3.48,7.27,5.55,11.93-.41,1.4-.65,1.51-1.91,1.52-1.13,0-1.4-.1-1.78-.46.09.75.17,1.26-.07,1.91-.33,1.53-1.47,1.33-2.06.98-.78-.2-1.3-.52-2.1-.91-.04.82-.34,1.27-.38,2.08-.2,1.25-.8,1.33-1.73.83q-.83-.48-1.83-1.02c-.08.95-.21,1.05-.29,1.99-.45,1.57-1.18,1.38-2.09.94-4.61-3.76-12.13-25.42-12.13-25.42-.04-1.38-.08-2.76-.12-4.14"/>
  <path class="cls-8" d="M154.38,314.05c-4.13,1.97-8.26,3.94-12.39,5.91l-3.29,1.57-3.84-8.05,15.68-7.48,3.84,8.05Z"/>
  <path class="cls-7" d="M212.96,192.98s.04.04.05.06l-.16-.2s.07.1.09.16l-.1-.24c.02.05.04.11.05.17.03.13.09.24.18.34.07.11.16.19.28.26.11.07.24.11.37.12.13.03.27.02.4-.02l.24-.1c.15-.09.27-.21.36-.36l.1-.24c.05-.18.05-.35,0-.53-.01-.09-.03-.18-.06-.27-.04-.12-.1-.24-.15-.36-.02-.04-.04-.08-.06-.12l-.36,1.37h0c-.08.03-.16.06-.24.1,0,0,0,0,.01,0l-.27.04s.01,0,.02,0l-.27-.04s.01,0,.02,0l-.24-.1s0,0,.01,0l-.2-.16s0,0,.01.01l-.16-.2s0,0,0,.01c.06.12.15.21.26.28.1.09.21.15.34.18.13.04.27.05.4.02.13,0,.26-.05.37-.12l.2-.16c.12-.12.21-.27.26-.44l.04-.27c0-.18-.05-.35-.14-.5-.04-.09-.11-.16-.17-.22-.06-.06-.13-.12-.21-.16-.04-.02-.08-.04-.13-.05-.04-.02-.08-.04-.13-.05-.05-.01-.1-.01-.15-.02s-.1-.02-.15-.02c-.05,0-.09.01-.14.02-.05,0-.09,0-.14.02-.09.02-.17.07-.25.11-.12.06-.21.15-.28.26-.09.1-.15.21-.18.34l-.04.27c0,.18.05.35.14.5.02.04.04.09.06.13l-.1-.24c.05.12.09.25.1.38l1.93-.53s-.02-.08-.03-.11c0-.02-.01-.04-.02-.05-.04-.09-.07-.19-.12-.28-.02-.03-.04-.07-.06-.1-.07-.1-.14-.2-.23-.28-.09-.1-.2-.17-.32-.21-.12-.06-.25-.09-.39-.09-.14,0-.27.02-.39.09-.12.04-.23.11-.32.21l-.16.2c-.09.16-.14.32-.14.5l.04.27c.05.17.13.32.26.44h0Z"/>
  <ellipse class="cls-6" cx="185.97" cy="186.64" rx="4.78" ry="8.18"/>
</svg>