<?xml version="1.0" encoding="UTF-8"?>
<svg id="Layer_1" data-name="Layer 1" xmlns="http://www.w3.org/2000/svg" viewBox="0 0 300 500">
  <defs>
    <style>
      .cls-1 {
        fill: none;
      }

      .cls-2 {
        fill: #58595b;
      }

      .cls-3 {
        fill: #231f20;
      }

      .cls-4 {
        fill: #603913;
      }

      .cls-5 {
        fill: #6d6e71;
      }

      .cls-6 {
        fill: #414042;
      }

      .cls-7 {
        fill: #be1e2d;
      }

      .cls-8 {
        fill: #fbb040;
      }

      .cls-9 {
        fill: #8b5e3c;
      }

      .cls-10 {
        fill: #fff;
      }

      .cls-11 {
        fill: #a97c50;
      }
    </style>
  </defs>
  <path class="cls-9" d="M128.11,193.46l-2.49-21.32s5.19,17.26,22.73,19.4c0,0,12.72,3.19,23.77-19.4l-2.58,20.98-21.19,5.75-20.25-5.41Z"/>
  <polygon class="cls-10" points="141.58 238.03 139.16 231.17 128.11 193.46 148.36 198.87 169.54 193.12 155.09 236.92 157.55 216.07 153.13 210.39 143.54 210.39 139.16 214.98 141.58 238.03"/>
  <path class="cls-11" d="M178.68,154.33c-.01,1.9-10.1,37.21-28.34,37.21-15.74,0-28.44-16.29-28.44-39.65,0-.24-1.45.66-2.57-1.28-.41-.71-.93-2.34-1.07-2.58,0,0-.86-5.25.5-12.62.03-.14.08-.24.16-.31.25-.22,1.83-.46,2.43-.23,0,0,.7.49,1.72,2.05-.17-2.64-.32-10.33,4.7-17.75,5.08-7.51,21.8,8.16,30.44,8.44,13.14.42,17.88-7.62,19.14,9.8h0c.81-.4,2.14-2.4,2.14-2.4,0,0,1.1-1.43,2.68,0l.36.99c.19.18,0,0,0,0,0,0,.75,2.05.78,5.13.03,2.55-.13,4.83-.62,7.16-.07.34-.89,2.21-1.42,3.49-.56,1.34-1.93,1.21-2.32,1.19l-.27,1.36Z"/>
  <path class="cls-7" d="M153.13,255.74h-9.59c0-12.5-4.39-40.76-4.39-40.76,0,0,4.39-1.98,4.39-4.59h9.59c0,2.89,4.42,5.68,4.42,5.68,0,0-4.42,27.45-4.42,39.67Z"/>
  <path class="cls-5" d="M148.05,256.38l21.49-63.26,2.55-.69s4.18.37,6.89.37c1.47.5,3.86,1.32,6.81,2.36,5,1.75,8.81,3.14,9.06,3.24,7.65,2.86,17.53,39.46,21.68,55.9,1.87,21.08,3.75,42.17,5.62,63.25-5.68,0-11.37,0-17.05,0-1.11,0-2.22,0-3.33,0-2.34-20.61-4.69-41.23-7.03-61.84-3.65-8.46-7.3-16.92-10.96-25.39-1,.48.58,4.56,1.5,19.4h0c1.51,18.75,3.02,37.5,6.32,56.91,4.01,23.59,15.15,49.84,19.15,73.44h-29.48c-8.55,0-17.21,0-25.76,0l-2.09-2.24-5.03-5.39h0l-4.86,4.44-3.18,3.2c-17.95,0-35.91,0-53.86,0,.42-2.69.63-4.03.63-4.03,0,0-.63,4.03-.63,4.03,0,0,7.25-29.12,16.04-64.95.9-3.65,1.46-6,1.51-6.32,3.92-24.07,2.22-51.13,6.33-77.25q-14.92-9.43-48.78-29.53c-4.75-2.82-17.83-7.89-20.62-16.07-2.81-8.25.45-16.37,1.65-19.62l.64-1.13,29.7-52.22.54-1,12.22,5.14-.32.82-21.9,56.61.27.63,51.44,17.38.73.25,5.95.4,6.17.26,19.94,62.92"/>
  <path class="cls-1" d="M86.42,115.39c-.42-.47-1.1-1.18-2.61-1.64"/>
  <path class="cls-2" d="M171.21,465.01h-45.59v-84.96c4.81,0,14.43,0,14.43,0l8.36-7.64,7.12,7.64s10.45,0,15.68,0v84.96Z"/>
  <line class="cls-1" x1="211.01" y1="479.04" x2="210.33" y2="489.03"/>
  <line class="cls-1" x1="85.76" y1="479.04" x2="85.93" y2="489.03"/>
  <polyline class="cls-4" points="125.62 465.01 85.76 479.04 85.93 489.03 210.33 489.03 211.01 479.04 171.21 465.01"/>
  <rect class="cls-4" x="133.06" y="489.03" width="30.4" height="2.28"/>
  <path class="cls-11" d="M206.16,326.11l-1.96,3.64c-1.86,3.33-4.21,7.99-4.68,11.78-.07.54-1.14,2.73-1.14,3.85,0,1.75.96,1.84,1.38,1.98.34.12,1.95-.62,3.86-4.13.14,4.9-.01,7.74.13,12.64.93,1.04,1.19,1.04,2.29.53.98-.47,1.17-.67,1.35-1.13.23.69.38,1.16.85,1.63.92,1.19,1.82.54,2.19,0,.6-.49.91-.99,1.44-1.65.37.69.82.96,1.19,1.65.69,1,1.24.82,1.85,0q.52-.76,1.17-1.64c.46.79.62.82,1.08,1.61,1.04,1.18,1.59.71,2.2-.05,2.44-5.17,0-27.06,0-27.06-.54-1.21-1.07-2.43-1.61-3.64"/>
  <path class="cls-11" d="M88.91,109.62l3.14-2.69c2.94-2.44,6.8-5.94,8.6-9.31.26-.48,2.04-2.14,2.45-3.18.64-1.63-.24-2.06-.57-2.35-.27-.23-2.05-.12-5.09,2.47,1.63-4.62,2.79-7.22,4.43-11.84-.5-1.31-.74-1.4-1.94-1.31-1.08.09-1.33.2-1.67.57.03-.73.07-1.22-.21-1.83-.43-1.44-1.51-1.16-2.05-.78-.73.25-1.2.59-1.94,1.03-.1-.78-.42-1.19-.52-1.97-.29-1.18-.86-1.21-1.72-.67q-.76.52-1.68,1.11c-.15-.9-.28-.99-.43-1.89-.55-1.47-1.23-1.24-2.07-.75-4.13,3.95-9.73,25.25-9.73,25.25.06,1.33.13,2.65.19,3.98"/>
  <circle class="cls-8" cx="72.99" cy="119.24" r="1.85"/>
  <circle class="cls-8" cx="67.07" cy="129.66" r="1.85"/>
  <circle class="cls-8" cx="70.07" cy="124.45" r="1.85"/>
  <circle class="cls-8" cx="147.9" cy="263.72" r="1.85"/>
  <circle class="cls-8" cx="147.9" cy="286.69" r="1.85"/>
  <circle class="cls-8" cx="147.9" cy="309.66" r="1.85"/>
  <rect class="cls-6" x="155.41" y="247.68" width="23.07" height="3.26"/>
  <circle class="cls-8" cx="217.5" cy="301.37" r="1.85"/>
  <circle class="cls-8" cx="218" cy="307.66" r="1.85"/>
  <circle class="cls-8" cx="217" cy="295.07" r="1.85"/>
  <line class="cls-1" x1="148.42" y1="372.41" x2="149.76" y2="465.01"/>
  <line class="cls-1" x1="148.05" y1="256.38" x2="144.45" y2="246.25"/>
  <path class="cls-7" d="M157.03,208.96c-3.02,3.07-14.17,3.04-17.22,0-1.66-1.66-1.83-7.91,0-9.39,3.35-2.71,14.48-3.32,17.22,0,1.49,1.81,1.65,7.71,0,9.39Z"/>
  <path class="cls-1" d="M144.22,189.61h.4c-.08.03-.18-.03-.2-.11.26-.12.57-.07.85-.03,1.85.26,3.73-.13,5.55-.58-.21.03-.42,0-.61-.1.16.02.32,0,.47-.07"/>
  <rect class="cls-2" x="73.92" y="106.76" width="16.69" height="8.57" transform="translate(48.22 -22.89) rotate(22.27)"/>
  <path class="cls-2" d="M219.35,326.11h-16.69v-8.57h16.69v8.57Z"/>
  <line class="cls-1" x1="149.76" y1="465.01" x2="150.09" y2="491.31"/>
  <path class="cls-3" d="M118.93,135.09s-2.74-16.36,7.39-28.15c0,0,14.55-7.29,23.21-7.51s23.39,7.51,23.39,7.51c0,0,12.73,8.72,9.24,28.05,0,0-.54-2.4-2.68,0l-2.14,2.4s-.23-11.58-4.67-11.22-13.34,2.92-14.47,1.42,6.23,4.9-27.2-10.47c0,0-6.98-.32-7.94,19.79,0,0-.86-3.15-4.15-1.82Z"/>
</svg>