<?xml version="1.0" encoding="UTF-8"?>
<svg id="Layer_1" data-name="Layer 1" xmlns="http://www.w3.org/2000/svg" viewBox="0 0 300 500">
  <defs>
    <style>
      .cls-1, .cls-2 {
        fill: none;
      }

      .cls-3 {
        fill: #231f20;
      }

      .cls-4 {
        fill: #603913;
      }

      .cls-5 {
        fill: #fbb040;
      }

      .cls-6 {
        fill: #ed1c24;
      }

      .cls-7 {
        fill: #8b5e3c;
      }

      .cls-2 {
        stroke: #8b5e3c;
        stroke-miterlimit: 10;
      }

      .cls-8 {
        fill: #fff;
      }

      .cls-9 {
        fill: #a97c50;
      }
    </style>
  </defs>
  <path class="cls-9" d="M199.61,169.04l-12.48,37.44s4.75,18.48,3.86,28.82c-8.69,21.7-22.69,41.92-31.38,63.62,6.74,3.63,0,0,6.74,3.63,9.4-21.92,31.53-41.82,40.93-63.74"/>
  <polygon class="cls-6" points="151.54 168.43 169.54 161.37 185.08 160.18 199.61 169.04 188.36 202.78 151.54 168.43"/>
  <path class="cls-7" d="M135.44,162.88l-.76-29.84s-3.04,20.58,16.72,24.06c0,0,5.2,9.96,17.65-26.84l.36,31.72-18,7.06-15.97-6.16Z"/>
  <path class="cls-9" d="M121.9,113.34c6.84,28.27,17.52,48.51,34.8,44.57,18.55-4.22,27.05-46.28,29.32-43.66h0c.44.01,1.99.16,2.62-1.34.61-1.44,1.53-3.52,1.62-3.91.56-2.61.76-5.16.74-8-.03-3.44-.85-5.72-.85-5.72,0,0,.21.2,0,0l-.4-1.11c-1.77-1.58-3.01.01-3.01.01,0,0,.91-.45,0,0h0c-2.59-20.55-24.2-13.84-32.04-16.04-9.7-.26-22.1,2.77-27.85,11.18"/>
  <path class="cls-9" d="M118.25,93.83c.28-.25,2.06-.52,2.74-.26"/>
  <path class="cls-6" d="M176.5,246.98l11.86-44.2-33.45-32.55-26.75-10.81-6.87-.22-7.44-.64s-6.98,3.44-10.18,7.33l3.62,30.7s9.6,29.49,16.67,51.9c0,0-41.55,109.34-44.39,118.42.01-.06.02-.13.03-.2,0,0,0,0,0,0-.01.07-.02.13-.03.2-.06.2-.1.34-.13.44.05.02.1.06.14.09,19.96-.22,39.93-.45,59.89-.67l3.59-3.6,5.47-5,.03,8.49,5.5-2.56,2.3,2.47c9.53-.11,19.17-.22,28.7-.32,10.94-.12,21.89-.25,32.83-.37-4.17-26.19-37.23-92.73-41.4-118.92Z"/>
  <path class="cls-1" d="M72.36,40.1c-.51-.57-1.33-1.43-3.16-1.98"/>
  <path class="cls-9" d="M177.15,461.67h-51.36v-95.72c5.42,0,16.26,0,16.26,0l9.42-8.61,8.02,8.61s11.78,0,17.66,0v95.72Z"/>
  <line class="cls-1" x1="226.09" y1="475.88" x2="225.27" y2="487.96"/>
  <line class="cls-1" x1="80.87" y1="481.35" x2="81.07" y2="492.61"/>
  <polyline class="cls-3" points="125.79 461.67 80.87 477.47 81.07 488.73 221.23 488.73 221.99 477.48 177.15 461.67"/>
  <line class="cls-1" x1="152.98" y1="461.67" x2="153.36" y2="491.29"/>
  <rect class="cls-6" x="138.04" y="354.26" width="29.4" height="11.69"/>
  <polygon class="cls-9" points="103.68 165.9 53.12 235.36 59.52 245.25 110.75 245.25 124.21 246.15 125.79 230.48 111.33 232.42 80.14 232.42 107.3 196.6 103.68 165.9"/>
  <polyline class="cls-9" points="148.06 229.34 142.69 231.01 124.6 230.87 124.21 246.15 134.51 246.15 149.52 241.57 154.91 228.97 148.06 229.34"/>
  <path class="cls-5" d="M101.78,225.82l5.13,8.68s24.03,9.71,53.6,0l4.63-8.75-63.36.07Z"/>
  <ellipse class="cls-4" cx="135.61" cy="206.48" rx="24.46" ry="5.29"/>
  <polygon class="cls-3" points="157.49 209.6 161.34 207.52 165.13 207.52 159.55 221.8 150.21 224.6 151.44 220.89 157.67 218.39 160.51 211.27 155.33 214.06 157.49 209.6"/>
  <path class="cls-3" d="M110.38,206.48l11.77,20.82s12.63,8.29,28.07,0l10.62-20.82s-19.45,11.16-50.46,0Z"/>
  <line class="cls-2" x1="151.59" y1="365.95" x2="152.98" y2="461.67"/>
  <path class="cls-3" d="M154.07,85.91l-28.28,30.07,11.84,31.65v36l-19.38-9.1-7.87-63.3s4.59-17.67,9.24-23.89c2.68-3.58,20.31-15.38,24.61-16.63,9.86-2.86,23.68,4.75,33.59,7.42,5.53,1.49,12.2,12.15,15.08,17.1,3.67,6.29,4.86,19.16,4.86,19.16l-8.31,67.08-20.05,3.62-1.18-35.45,9.75-31.39s-5.12-16.42-8.57-20.88c-2.93-3.79-15.34-11.47-15.34-11.47Z"/>
  <path class="cls-8" d="M118.26,118.6s-1.6-40.82,33.82-40.47c14.35.14,46.47,11.58,33.42,46.11l-3.32-3.5s16.05-33.47-28.2-40.05c0,0-31.34-4.37-32.42,34.36l-3.31,3.53Z"/>
</svg>