<?xml version="1.0" encoding="UTF-8"?>
<svg id="Layer_1" data-name="Layer 1" xmlns="http://www.w3.org/2000/svg" viewBox="0 0 300 500">
  <defs>
    <style>
      .cls-1 {
        fill: none;
      }

      .cls-2 {
        fill: #c49a6c;
      }

      .cls-3 {
        fill: #58595b;
      }

      .cls-4 {
        fill: #231f20;
      }

      .cls-5 {
        fill: #414042;
      }

      .cls-6 {
        fill: #fff;
      }

      .cls-7 {
        fill: #a97c50;
      }

      .cls-8 {
        fill: #808285;
      }

      .cls-9 {
        fill: #cc5229;
      }

      .cls-10 {
        fill: #939598;
      }
    </style>
  </defs>
  <rect class="cls-2" x="186.9" y="174.88" width="23.41" height="14.99" rx="4.47" ry="4.47"/>
  <path class="cls-7" d="M154.35,190.23l2.61-22.38s-5.45,18.12-23.87,20.36c0,0-13.35,3.35-24.96-20.36l2.71,22.03,22.24,6.03,21.26-5.68Z"/>
  <polygon class="cls-6" points="140.21 237.03 142.75 229.82 154.35 190.23 133.1 195.91 110.86 189.88 126.03 235.86 123.44 213.97 128.08 208.01 138.15 208.01 142.75 212.82 140.21 237.03"/>
  <path class="cls-2" d="M101.26,149.15c.01,1.99,10.6,39.06,29.75,39.06,16.52,0,29.86-17.11,29.86-41.63,0-.25,1.52.69,2.7-1.35.43-.74.98-2.45,1.12-2.71,0,0,.9-5.51-.53-13.25-.03-.15-.08-.25-.17-.33-.26-.24-1.92-.48-2.55-.24,0,0-.74.51-1.81,2.16.18-2.78.33-10.85-4.93-18.64-5.33-7.89-22.89,8.57-31.95,8.86-13.8.44-18.77-8-20.09,10.28h0c-.85-.42-2.24-2.52-2.24-2.52,0,0-1.15-1.5-2.81,0l-.38,1.04c-.2.19,0,0,0,0,0,0-.78,2.15-.82,5.39-.03,2.67.14,5.07.65,7.52.08.36.93,2.32,1.49,3.67.58,1.41,2.02,1.27,2.44,1.25l.28,1.43Z"/>
  <path class="cls-4" d="M128.08,255.62h10.07c0-13.13,4.6-42.79,4.6-42.79,0,0-4.6-2.07-4.6-4.82h-10.07c0,3.03-4.64,5.96-4.64,5.96,0,0,4.64,28.81,4.64,41.65Z"/>
  <g>
    <path class="cls-4" d="M173.36,220.14c.05.29-.33,10.64-.29,10.93-.08.18-.13,155.06-.13,155.06-10.49,0-20.97,0-31.46,0l-3.34-3.36-5.1-4.66-5.28,5.66-2.2,2.36c-8.98,0-18.07,0-27.05,0h-2.37v-137.12s.01-.06.02-.08c.19-.7.16-1.33-.02-1.88v-14.74c0-.15-.04-.26-.09-.37.24-1.98.26-2.81-.16-3.02-3.83,8.88-7.67,17.77-11.5,26.65-2.46,21.64-4.92,43.28-7.38,64.93h-21.4c1.97-22.13,3.94-44.27,5.9-66.4,4.36-17.26,14.73-55.68,22.76-58.69.26-.1,4.26-1.56,9.51-3.4,3.1-1.09,5.61-1.95,7.15-2.47,2.84,0,7.23-.39,7.23-.39l2.68.73,22.56,66.41,20.94-66.05,6.48-.28,7.02-.68,22.88,38.99.11-40.05h15.03v77.26l-14.03,6.01-21.84-32.56"/>
    <path class="cls-4" d="M78.9,343.36c.01.11.03.21.06.31,0,.02.01.03.02.05.01.12,0,.24.03.37.02.08.06.15.09.22.03.41.19.8.27,1.2.05.23.04.54.14.8.05.15.13.29.21.43.03.06.07.12.1.18.02.03.03.06.04.09-.01-.03-.01-.02,0,.03,0,0,0,0,0,.01.03.22.1.42.17.63.08.24.11.5.19.75.09.25.19.49.26.74.01.04.02.09.03.13,0,.05.01.1.02.15,0,.13,0,.26-.01.39,0,0,0,0,0,.01-.02.07-.04.13-.05.2-.04.18-.05.36-.06.54-.07.06-.11.14-.13.24-.26.26-.53.51-.78.78-.25,0-.5.05-.75.06-.06,0-.12,0-.19,0-.05-.03-.1-.05-.16-.05-.07-.08-.15-.16-.25-.2-.13-.12-.25-.25-.36-.38-.3-.34-.59-.7-.91-1.03.66-2.22,1.33-4.43,2-6.65Z"/>
    <path class="cls-4" d="M75.03,359.1c-.02.31-.05.62-.07.94,0,0,0,0,0,0,0,.05-.02.1-.02.14-.02.12-.05.25-.08.37-.02.09-.05.17-.08.25-.1.12-.21.24-.33.35-.03.03-.07.06-.1.09,0,0,0,0,0,0,0,0,0,0,0,0-.06.04-.13.09-.2.12,0,0-.01,0-.03.01-.02,0-.06.02-.07.03-.07.02-.15.04-.22.06,0,0,0,0-.01,0-.04,0-.08,0-.12.01-.06,0-.12,0-.18,0,.48-1.66.98-3.33,1.47-4.99.03.41.06.82.07,1.23,0,0,0,.01,0,.02,0,0,0,.01,0,.02,0,.45,0,.89,0,1.34Z"/>
  </g>
  <path class="cls-3" d="M142.39,475.05h27.29s0-89.19,0-89.19c-2.88,0-8.64,0-8.64,0l-5.01-8.02-4.26,8.02s-6.26,0-9.39,0c0,29.73,0,59.46,0,89.19Z"/>
  <line class="cls-1" x1="43.33" y1="490.05" x2="44.04" y2="500.53"/>
  <line class="cls-1" x1="174.82" y1="490.05" x2="174.63" y2="500.53"/>
  <path class="cls-2" d="M58.57,333.32c.56-1.27,1.13-2.55,1.69-3.82h12.15s2.06,3.82,2.06,3.82c1.61,2.87,3.53,6.67,4.45,10.14.01.07.02.15.04.22,0,.02.01.03.02.05,0,.12,0,.24.03.37.02.07.06.14.09.21.02.32.12.63.2.94.03.15.06.3.08.44,0,.03.02.07.03.11.02.18.04.36.1.53.05.15.13.29.21.43.02.04.04.08.07.12.03.09.07.19.1.28.04.18.1.36.16.55.08.24.11.5.19.75.09.25.19.49.26.74,0,.03.02.06.02.09.01.09.02.17.03.25,0,.11,0,.22,0,.33,0,0,0,0,0,.01-.02.07-.04.13-.05.2-.04.18-.05.36-.06.54-.07.06-.11.14-.13.24-.26.26-.53.51-.78.78-.25,0-.5.05-.75.06-.05,0-.11,0-.16,0-.08-.04-.18-.09-.27-.16-.04-.04-.09-.06-.14-.09,0,0-.02-.01-.03-.02-.13-.12-.24-.25-.36-.38-.46-.52-.88-1.08-1.43-1.5-.41-.56-.85-1.24-1.3-2.07-.09,3.01-.07,5.3-.07,7.7-.03.08-.05.16-.06.24-.05.57.01,1.14.05,1.71,0,.85-.02,1.73-.04,2.69,0,.08-.01.15-.02.23,0,0,0,0,0,0,0,.05-.02.1-.02.14-.02.12-.05.25-.08.37-.02.09-.05.17-.08.25-.1.12-.21.24-.33.35-.03.03-.07.06-.1.09,0,0,0,0,0,0,0,0,0,0,0,0-.06.04-.13.09-.2.12,0,0-.01,0-.03.01-.02,0-.06.02-.07.03-.07.02-.15.04-.22.06,0,0,0,0-.01,0-.04,0-.08,0-.12.01-.1,0-.19,0-.29,0-.08,0-.16.03-.23.06-.18-.06-.37-.14-.61-.25-1.03-.5-1.23-.7-1.42-1.19-.24.73-.4,1.22-.89,1.71-.96,1.25-1.91.57-2.3,0-.63-.52-.96-1.03-1.52-1.74-.39.73-.86,1-1.25,1.73-.73,1.05-1.3.86-1.94,0q-.55-.8-1.22-1.72c-.49.82-.65.86-1.13,1.69-1.09,1.23-1.67.75-2.31-.05-2.56-5.43,0-28.41,0-28.41Z"/>
  <circle class="cls-8" cx="133.57" cy="263.99" r="1.95"/>
  <circle class="cls-8" cx="133.57" cy="288.11" r="1.95"/>
  <circle class="cls-10" cx="133.57" cy="312.22" r="1.95"/>
  <rect class="cls-5" x="101.47" y="247.16" width="24.22" height="3.43" transform="translate(227.16 497.74) rotate(-180)"/>
  <circle class="cls-8" cx="69.52" cy="285.97" r="1.95"/>
  <circle class="cls-8" cx="68.99" cy="292.57" r="1.95"/>
  <circle class="cls-8" cx="70.04" cy="279.36" r="1.95"/>
  <line class="cls-1" x1="133.04" y1="378.11" x2="131.63" y2="475.32"/>
  <line class="cls-1" x1="133.42" y1="256.29" x2="137.2" y2="245.65"/>
  <path class="cls-4" d="M123.99,206.5c3.17,3.22,14.88,3.2,18.08,0,1.74-1.74,1.92-8.31,0-9.86-3.52-2.84-15.2-3.49-18.08,0-1.57,1.9-1.73,8.1,0,9.86Z"/>
  <path class="cls-1" d="M137.44,186.19h-.42c.09.03.19-.03.21-.12-.28-.13-.59-.07-.89-.03-1.95.27-3.92-.14-5.82-.6.22.04.45,0,.64-.11-.17.02-.34,0-.49-.07"/>
  <path class="cls-3" d="M58.57,329.5h13.84c1.22,0,2.45,0,3.67,0v-9s-17.52,0-17.52,0v9Z"/>
  <line class="cls-1" x1="107.63" y1="475.32" x2="107.28" y2="502.92"/>
  <path class="cls-9" d="M163.99,135.92s.72-4.99.11-11.77c-.24-2.62-.67-6.88-2.46-12.01-.94-2.68-2.57-6.52-5.41-10.54-3.51-1.99-4.76-5.8-7.01-6.82-2.34-1.06-5.97.44-8.52-.39-2.44-.79-8.04-4.42-11.39-4.58-4.2-.21-4.63,3.59-10.33,5.88-2.97,1.19-6.18,6.31-10.82,9.18-1.7,1.6-4.98,1.01-7.07,5-2.93,5.59-7.03,12.24-7.33,14.79-.6,5.11,3.29,7.99,3.85,11.16.1-.39.35-1.09.85-1.26.43-.15,1.06.08,1.97,1.26l2.24,2.92s-.85-13.75,3.81-13.31c1.72.17,5.86,4.86,8.21,5.37,4.01.87,8.51-10.49,8.77-9.08,2.57,13.92-4.23,8.04,10.17,1.29,2.46-1.15,6.29,3.23,9.97,1.35,2.52-1.29,3.46,6.1,6.64,4.39,0,0,4.26-8.18,6.74,2.05.83,3.41,2.41,1.21,2.66,7.34,0,0,.9-3.84,4.36-2.22Z"/>
  <path class="cls-3" d="M96.96,475.05h28.59s0-89.19,0-89.19c-3.02,0-9.05,0-9.05,0l-5.24-8.02-4.46,8.02s-6.55,0-9.83,0c0,29.73,0,59.46,0,89.19Z"/>
  <rect class="cls-4" x="96.15" y="374.61" width="76.79" height="11.52" transform="translate(269.09 760.73) rotate(-180)"/>
  <rect class="cls-5" x="139.64" y="472.57" width="33.3" height="20.15" transform="translate(312.58 965.29) rotate(-180)"/>
  <rect class="cls-5" x="93.9" y="472.57" width="33.3" height="20.15" transform="translate(221.09 965.29) rotate(-180)"/>
  <path class="cls-3" d="M187.2,53.47s-4.39,89.7,0,118.47c1.61,10.56,10.44,33.91,27.23,0h6.98s-28.37,61.69-40.49,0c-5.51-28.01-2.51-117.37-2.51-117.37l8.8-1.11Z"/>
  <path class="cls-4" d="M76.03,65.23s17.14-21.81,33.45,0c0,0,17.61-21.13,33.66,0,0,0,13.91-21.66,29.29,0,0,0,12.4-20.37,26.91,0,0,0,15.15-21.34,27.04,0,0,0,13.18-21.34,26.99,0,0,0,12.62-19.3,26.75,0,0,0-94.71-133.66-204.09,0Z"/>
</svg>