<?xml version="1.0" encoding="UTF-8"?>
<svg id="Layer_1" data-name="Layer 1" xmlns="http://www.w3.org/2000/svg" viewBox="0 0 500 300">
  <defs>
    <style>
      .cls-1 {
        fill: #fff;
      }

      .cls-2 {
        fill: #b92525;
      }

      .cls-3 {
        fill: #252165;
      }
    </style>
  </defs>
  <g id="stripes">
    <rect class="cls-2" y="276.92" width="500" height="23.08"/>
    <rect class="cls-1" y="253.85" width="500" height="23.08"/>
    <rect class="cls-2" y="230.77" width="500" height="23.08"/>
    <rect class="cls-1" y="207.69" width="500" height="23.08"/>
    <rect class="cls-2" y="185.29" width="500" height="23.08"/>
    <rect class="cls-1" y="162.22" width="500" height="23.08"/>
    <rect class="cls-2" y="138.46" width="500" height="23.08"/>
    <rect class="cls-1" y="114.71" width="500" height="23.08"/>
    <rect class="cls-2" y="90.95" width="500" height="23.08"/>
    <rect class="cls-1" y="67.19" width="500" height="23.08"/>
    <rect class="cls-1" y="23.76" width="500" height="23.08"/>
    <rect class="cls-2" width="500" height="23.08"/>
    <rect class="cls-2" x="0" y="47.51" width="500" height="19"/>
  </g>
  <rect id="rectangle" class="cls-3" width="222.16" height="161.54"/>
  <g id="stars">
    <polygon class="cls-1" points="51.41 17.4 55.82 9.72 59.5 17.4 66.36 17.4 60.48 23.04 63.17 29.17 56.31 25.99 49.45 29.17 51.9 22.55 45.51 17.58 51.41 17.4"/>
    <polygon class="cls-1" points="196.17 17.4 200.58 9.72 204.26 17.4 211.12 17.4 205.24 23.04 207.93 29.17 201.07 25.99 194.21 29.17 196.66 22.55 190.27 17.58 196.17 17.4"/>
    <polygon class="cls-1" points="87.6 17.4 92.01 9.72 95.69 17.4 102.55 17.4 96.67 23.04 99.36 29.17 92.5 25.99 85.64 29.17 88.09 22.55 81.7 17.58 87.6 17.4"/>
    <polygon class="cls-1" points="123.79 17.4 128.2 9.72 131.88 17.4 138.74 17.4 132.86 23.04 135.55 29.17 128.69 25.99 121.83 29.17 124.28 22.55 117.89 17.58 123.79 17.4"/>
    <polygon class="cls-1" points="159.98 17.4 164.39 9.72 168.07 17.4 174.93 17.4 169.05 23.04 171.74 29.17 164.88 25.99 158.02 29.17 160.47 22.55 154.08 17.58 159.98 17.4"/>
    <polygon class="cls-1" points="34.08 42.68 38.49 34.99 42.16 42.68 49.03 42.68 43.14 48.31 45.84 54.44 38.98 51.26 32.12 54.44 34.57 47.82 28.18 42.85 34.08 42.68"/>
    <polygon class="cls-1" points="70.57 42.68 74.98 34.99 78.65 42.68 85.51 42.68 79.63 48.31 82.33 54.44 75.47 51.26 68.61 54.44 71.06 47.82 64.67 42.85 70.57 42.68"/>
    <polygon class="cls-1" points="180.03 42.68 184.44 34.99 188.11 42.68 194.97 42.68 189.09 48.31 191.79 54.44 184.93 51.26 178.07 54.44 180.52 47.82 174.13 42.85 180.03 42.68"/>
    <polygon class="cls-1" points="107.05 42.68 111.46 34.99 115.14 42.68 122 42.68 116.12 48.31 118.81 54.44 111.95 51.26 105.09 54.44 107.54 47.82 101.16 42.85 107.05 42.68"/>
    <polygon class="cls-1" points="143.54 42.68 147.95 34.99 151.63 42.68 158.49 42.68 152.61 48.31 155.3 54.44 148.44 51.26 141.58 54.44 144.03 47.82 137.64 42.85 143.54 42.68"/>
    <polygon class="cls-1" points="16.08 65.69 20.49 58.01 24.16 65.69 31.03 65.69 25.14 71.33 27.84 77.45 20.98 74.28 14.12 77.45 16.57 70.84 10.18 65.87 16.08 65.69"/>
    <polygon class="cls-1" points="52.27 65.69 56.68 58.01 60.35 65.69 67.22 65.69 61.33 71.33 64.03 77.45 57.17 74.28 50.31 77.45 52.76 70.84 46.37 65.87 52.27 65.69"/>
    <polygon class="cls-1" points="197.03 65.69 201.44 58.01 205.11 65.69 211.97 65.69 206.09 71.33 208.79 77.45 201.93 74.28 195.07 77.45 197.52 70.84 191.13 65.87 197.03 65.69"/>
    <polygon class="cls-1" points="88.46 65.69 92.87 58.01 96.54 65.69 103.41 65.69 97.52 71.33 100.22 77.45 93.36 74.28 86.5 77.45 88.95 70.84 82.56 65.87 88.46 65.69"/>
    <polygon class="cls-1" points="124.65 65.69 129.06 58.01 132.73 65.69 139.6 65.69 133.71 71.33 136.41 77.45 129.55 74.28 122.69 77.45 125.14 70.84 118.75 65.87 124.65 65.69"/>
    <polygon class="cls-1" points="160.84 65.69 165.25 58.01 168.92 65.69 175.78 65.69 169.9 71.33 172.6 77.45 165.74 74.28 158.88 77.45 161.33 70.84 154.94 65.87 160.84 65.69"/>
    <polygon class="cls-1" points="34.94 90.96 39.35 83.28 43.02 90.96 49.88 90.96 44 96.6 46.7 102.73 39.84 99.55 32.98 102.73 35.43 96.11 29.04 91.14 34.94 90.96"/>
    <polygon class="cls-1" points="71.42 90.96 75.83 83.28 79.51 90.96 86.37 90.96 80.49 96.6 83.18 102.73 76.32 99.55 69.46 102.73 71.91 96.11 65.52 91.14 71.42 90.96"/>
    <polygon class="cls-1" points="180.88 90.96 185.29 83.28 188.97 90.96 195.83 90.96 189.95 96.6 192.65 102.73 185.78 99.55 178.92 102.73 181.37 96.11 174.99 91.14 180.88 90.96"/>
    <polygon class="cls-1" points="107.91 90.96 112.32 83.28 116 90.96 122.86 90.96 116.98 96.6 119.67 102.73 112.81 99.55 105.95 102.73 108.4 96.11 102.01 91.14 107.91 90.96"/>
    <polygon class="cls-1" points="144.4 90.96 148.81 83.28 152.48 90.96 159.34 90.96 153.46 96.6 156.16 102.73 149.3 99.55 142.44 102.73 144.89 96.11 138.5 91.14 144.4 90.96"/>
    <polygon class="cls-1" points="16.08 113.17 20.49 105.49 24.16 113.17 31.03 113.17 25.14 118.81 27.84 124.93 20.98 121.76 14.12 124.93 16.57 118.32 10.18 113.35 16.08 113.17"/>
    <polygon class="cls-1" points="52.27 113.17 56.68 105.49 60.35 113.17 67.22 113.17 61.33 118.81 64.03 124.93 57.17 121.76 50.31 124.93 52.76 118.32 46.37 113.35 52.27 113.17"/>
    <polygon class="cls-1" points="197.03 113.17 201.44 105.49 205.11 113.17 211.97 113.17 206.09 118.81 208.79 124.93 201.93 121.76 195.07 124.93 197.52 118.32 191.13 113.35 197.03 113.17"/>
    <polygon class="cls-1" points="88.46 113.17 92.87 105.49 96.54 113.17 103.41 113.17 97.52 118.81 100.22 124.93 93.36 121.76 86.5 124.93 88.95 118.32 82.56 113.35 88.46 113.17"/>
    <polygon class="cls-1" points="124.65 113.17 129.06 105.49 132.73 113.17 139.6 113.17 133.71 118.81 136.41 124.93 129.55 121.76 122.69 124.93 125.14 118.32 118.75 113.35 124.65 113.17"/>
    <polygon class="cls-1" points="160.84 113.17 165.25 105.49 168.92 113.17 175.78 113.17 169.9 118.81 172.6 124.93 165.74 121.76 158.88 124.93 161.33 118.32 154.94 113.35 160.84 113.17"/>
    <polygon class="cls-1" points="34.94 138.44 39.35 130.76 43.02 138.44 49.88 138.44 44 144.08 46.7 150.2 39.84 147.03 32.98 150.2 35.43 143.59 29.04 138.62 34.94 138.44"/>
    <polygon class="cls-1" points="71.42 138.44 75.83 130.76 79.51 138.44 86.37 138.44 80.49 144.08 83.18 150.2 76.32 147.03 69.46 150.2 71.91 143.59 65.52 138.62 71.42 138.44"/>
    <polygon class="cls-1" points="180.88 138.44 185.29 130.76 188.97 138.44 195.83 138.44 189.95 144.08 192.65 150.2 185.78 147.03 178.92 150.2 181.37 143.59 174.99 138.62 180.88 138.44"/>
    <polygon class="cls-1" points="107.91 138.44 112.32 130.76 116 138.44 122.86 138.44 116.98 144.08 119.67 150.2 112.81 147.03 105.95 150.2 108.4 143.59 102.01 138.62 107.91 138.44"/>
    <polygon class="cls-1" points="144.4 138.44 148.81 130.76 152.48 138.44 159.34 138.44 153.46 144.08 156.16 150.2 149.3 147.03 142.44 150.2 144.89 143.59 138.5 138.62 144.4 138.44"/>
    <polygon class="cls-1" points="15.22 17.4 19.63 9.72 23.31 17.4 30.17 17.4 24.29 23.04 26.98 29.17 20.12 25.99 13.26 29.17 15.71 22.55 9.32 17.58 15.22 17.4"/>
  </g>
</svg>